<?xml version="1.0" standalone="no"?>
<!DOCTYPE svg PUBLIC "-//W3C//DTD SVG 20010904//EN"
 "http://www.w3.org/TR/2001/REC-SVG-20010904/DTD/svg10.dtd">
<svg version="1.0" xmlns="http://www.w3.org/2000/svg"
 width="250.000000pt" height="250.000000pt" viewBox="0 0 250.000000 250.000000"
 preserveAspectRatio="xMidYMid meet">

<g transform="translate(0.000000,250.000000) scale(0.100000,-0.100000)"
fill="#000000" stroke="none">
<path d="M313 2393 l-313 -3 0 -1080 0 -1080 313 0 312 0 93 174 c50 95 92
176 92 180 0 3 -173 6 -385 6 l-385 0 0 795 0 795 115 0 115 0 0 -685 0 -685
333 0 333 0 394 730 c217 401 409 756 427 788 l32 59 -397 6 c-218 4 -480 6
-582 5 -102 -2 -326 -4 -497 -5z"/>
<path d="M1345 1188 c-192 -370 -371 -715 -398 -765 l-49 -93 165 0 164 0 47
100 47 100 367 0 368 0 49 -100 49 -100 173 0 173 0 -93 178 c-50 98 -229 442
-397 765 -168 323 -308 587 -311 587 -3 0 -163 -303 -354 -672z m457 -134 c60
-124 108 -227 105 -230 -2 -2 -103 -3 -224 -2 l-220 3 110 228 c61 125 112
227 114 227 3 0 54 -102 115 -226z"/>
</g>
</svg>
